<?xml version="1.0" encoding="UTF-8" standalone="no"?>
<!-- Created with Inkscape (http://www.inkscape.org/) -->

<svg
   version="1.1"
   id="svg1"
   width="298.66666"
   height="298.66666"
   viewBox="0 0 298.66666 298.66666"
   xmlns="http://www.w3.org/2000/svg"
   xmlns:svg="http://www.w3.org/2000/svg">
  <defs
     id="defs1" />
  <g
     id="g1">
    <path
       style="fill:#010101;stroke:none"
       d="M 136,0.62628172 C 111.66569,3.1744384 88.529945,10.423095 67.999998,23.940124 -35.37978,92.005917 -14.220438,257.25369 106.66666,292.28789 c 16.44791,4.76675 34.89862,7.53909 52,5.75236 27.64303,-2.8881 54.45953,-11.22005 77.33333,-27.37886 72.78558,-51.41823 82.6615,-158.894 22.14347,-223.872797 C 240.49161,27.835611 216.51466,14.465738 191.99999,6.7046913 174.33654,1.1126505 154.46374,-1.3071492 136,0.62628172 M 133.33333,19.999999 132,21.333333 l 1.33333,-1.333334 m 9.33333,255.999991 c 18.11687,-46.10551 72.5282,-73.42236 67.83846,-129.45263 -2.8928,-34.56156 -28.61365,-64.445312 -47.31487,-91.880695 -4.01006,-5.882914 -19.11077,-25.420186 -10.78152,-32.44637 6.67416,-5.630045 19.70017,4.161438 24.9246,7.94869 19.94635,14.459309 35.98295,35.149616 47.96708,56.497679 32.54516,57.974716 23.42124,135.984656 -35.96708,173.851676 -14.8596,9.47473 -29.77629,12.17558 -46.66667,15.48165 M 109.42296,34.394428 c 17.88492,-2.917541 16.91572,30.342834 15.09715,40.272236 -5.4905,29.978026 -28.208549,53.718186 -29.641705,85.333326 -0.975973,21.52973 9.866765,40.73302 17.844305,60 4.07088,9.83179 20.59225,41.47569 3.0897,45.92363 C 93.257016,271.65567 82.513959,243.50017 78.777087,226.66666 68.640272,181.00327 74.838097,129.02492 85.536333,83.999997 88.385566,72.008624 94.337826,36.855244 109.42296,34.394428 M 74.666664,45.333332 C 54.736687,109.99642 46.763803,174.53592 61.333331,241.33333 0.95718381,192.46748 12.150319,86.977373 74.666664,45.333332 m 157.333326,8 c 51.83362,51.941928 67.10474,137.799108 4,189.333328 C 259.07783,197.72947 272.61144,158.21786 256.23402,108 250.12831,89.278114 236.65002,72.038633 231.99999,53.333332 m -84,14.666666 c 28.35212,45.431562 60.65515,95.382492 18.61627,143.999992 -8.23473,9.52336 -16.75468,18.80495 -26.61626,26.66667 -9.05827,-19.76042 -20.0318,-40.7349 -22.25817,-62.66667 -3.14139,-30.94547 10.78964,-53.93922 22.28528,-81.333327 3.6311,-8.652913 4.55329,-17.999857 7.97288,-26.666665 z"
       id="path1" />
  </g>
</svg>
