<svg width="298.667" xmlns="http://www.w3.org/2000/svg" height="298.698" fill="none"><g data-testid="orbiq_emblem" style="fill: rgb(0, 0, 0);"><path d="M136 .658c-24.334 2.548-47.47 9.796-68 23.313-103.38 68.066-82.22 233.314 38.667 268.348 16.448 4.767 34.898 7.539 52 5.753 27.643-2.889 54.459-11.22 77.333-27.379 72.786-51.419 82.661-158.894 22.143-223.873C240.492 27.867 216.515 14.497 192 6.736c-17.663-5.592-37.536-8.012-56-6.078Zm-2.667 19.373L132 21.365l1.333-1.334Zm9.334 256c18.117-46.105 72.528-73.422 67.838-129.452-2.893-34.562-28.614-64.446-47.315-91.881-4.01-5.883-19.111-25.42-10.781-32.446 6.674-5.63 19.7 4.161 24.924 7.948 19.947 14.46 35.983 35.15 47.967 56.498 32.546 57.975 23.422 135.985-35.967 173.852-14.859 9.474-29.776 12.175-46.666 15.481ZM109.423 34.426c17.885-2.918 16.916 30.343 15.097 40.272-5.49 29.978-28.208 53.718-29.642 85.333-.976 21.53 9.867 40.733 17.845 60 4.071 9.832 20.592 41.476 3.089 45.924-22.555 5.732-33.298-22.424-37.035-39.257-10.137-45.663-3.939-97.642 6.759-142.667 2.85-11.991 8.802-47.144 23.887-49.605ZM74.667 45.365c-19.93 64.663-27.903 129.202-13.334 196-60.376-48.866-49.183-154.356 13.334-196Zm157.333 8c51.834 51.942 67.105 137.799 4 189.333 23.078-44.937 36.611-84.449 20.234-134.667C250.128 89.309 236.65 72.07 232 53.365Zm-84 14.666c28.352 45.432 60.655 95.383 18.616 144-8.234 9.524-16.754 18.805-26.616 26.667-9.058-19.76-20.032-40.735-22.258-62.667-3.142-30.945 10.789-53.939 22.285-81.333 3.631-8.653 4.553-18 7.973-26.667Z" style="stroke: none; fill: rgb(255, 255, 255); fill-opacity: 1;" class="fills" data-testid="svg-path"/></g></svg>